Coordinates
version=1
nRows=27
nColumns=12
inDegrees=yes

Units are S.I. units (second, meters, Newtons, ...)
Angles are in degrees

endheader
time	SC_y	SC_z	SC_x	AC_y	AC_z	AC_x	GH_y	GH_z	GH_yy	EL_x	PS_y
       0.0              -33.77          33.01          4.142          53.39         -19.06         -15.06          155.2         -9.732         -114.2          19.37          157.5
   0.02456              -33.78          33.01          4.142          53.38         -19.06         -15.06          155.2          -9.72         -114.2          19.37          157.5
   0.04912              -33.78          33.01          4.143          53.38         -19.05         -15.06          155.1         -9.707         -114.2          19.38          157.5
   0.07368              -33.78          33.01          4.144          53.38         -19.05         -15.05          155.1         -9.693         -114.2          19.38          157.5
   0.09824              -33.79          33.01          4.144          53.38         -19.05         -15.05          155.0         -9.678         -114.2          19.38          157.5
    0.1228              -33.79          33.01          4.145          53.38         -19.05         -15.05          155.0         -9.662         -114.2          19.38          157.5
    0.1474               -33.8          33.01          4.146          53.38         -19.04         -15.04          154.9         -9.646         -114.2          19.38          157.5
    0.1719               -33.8          33.01          4.147          53.37         -19.04         -15.04          154.9         -9.628         -114.2          19.39          157.5
    0.1965              -33.81          33.01          4.148          53.37         -19.03         -15.04          154.8         -9.609         -114.2          19.39          157.4
     0.221              -33.81          33.01          4.149          53.37         -19.03         -15.03          154.7         -9.588         -114.1          19.39          157.4
    0.2456              -33.82          33.01           4.15          53.37         -19.03         -15.03          154.6         -9.566         -114.1           19.4          157.4
    0.2701              -33.83           33.0          4.151          53.36         -19.02         -15.02          154.6         -9.542         -114.1           19.4          157.4
    0.2947              -33.83           33.0          4.152          53.36         -19.02         -15.02          154.5         -9.516         -114.1           19.4          157.4
    0.3193              -33.84           33.0          4.153          53.36         -19.01         -15.01          154.4         -9.489         -114.1          19.41          157.4
    0.3438              -33.85           33.0          4.155          53.35          -19.0          -15.0          154.3         -9.459         -114.1          19.41          157.4
    0.3684              -33.86           33.0          4.156          53.35          -19.0          -15.0          154.2         -9.426         -114.1          19.41          157.3
    0.3929              -33.87           33.0          4.158          53.35         -18.99         -14.99          154.1         -9.391         -114.1          19.42          157.3
    0.4175              -33.88           33.0           4.16          53.34         -18.98         -14.98          153.9         -9.352         -114.0          19.43          157.3
    0.4421              -33.89          32.99          4.162          53.34         -18.97         -14.97          153.8          -9.31         -114.0          19.43          157.3
    0.4666               -33.9          32.99          4.164          53.33         -18.96         -14.96          153.7         -9.264         -114.0          19.44          157.2
    0.4912              -33.92          32.99          4.167          53.33         -18.95         -14.95          153.5         -9.213         -114.0          19.44          157.2
    0.5157              -33.93          32.99          4.169          53.32         -18.94         -14.94          153.3         -9.158         -113.9          19.45          157.2
    0.5403              -33.95          32.98          4.172          53.31         -18.93         -14.93          153.1         -9.096         -113.9          19.46          157.2
    0.5649              -33.97          32.98          4.175          53.31         -18.92         -14.91          152.9         -9.028         -113.9          19.47          157.1
    0.5894              -33.99          32.98          4.179           53.3          -18.9          -14.9          152.6         -8.952         -113.9          19.48          157.1
     0.614              -34.01          32.97          4.183          53.29         -18.88         -14.88          152.4         -8.868         -113.8          19.49          157.0
    0.6385              -34.04          32.97          4.188          53.28         -18.86         -14.86          152.0         -8.773         -113.8          19.51          157.0
